<?xml version="1.0" standalone="no"?>
<!DOCTYPE svg PUBLIC "-//W3C//DTD SVG 20010904//EN"
 "http://www.w3.org/TR/2001/REC-SVG-20010904/DTD/svg10.dtd">
<svg version="1.0" xmlns="http://www.w3.org/2000/svg"
 width="270.000000pt" height="270.000000pt" viewBox="0 0 270.000000 270.000000"
 preserveAspectRatio="xMidYMid meet">
<metadata>
Created by potrace 1.10, written by Peter Selinger 2001-2011
</metadata>
<g transform="translate(0.000000,270.000000) scale(0.100000,-0.100000)"
fill="#000000" stroke="none">
<path d="M1049 2693 c-1 -5 -2 -19 -3 -33 -3 -44 -17 -164 -22 -190 -3 -17
-15 -30 -34 -37 -24 -9 -36 -7 -77 13 -50 25 -146 33 -158 14 -4 -6 -11 -8
-16 -4 -5 3 -17 0 -26 -8 -14 -11 -16 -11 -8 1 4 7 -6 4 -22 -9 -17 -12 -37
-33 -44 -46 -7 -13 -16 -24 -21 -24 -5 0 -6 -4 -3 -10 3 -5 1 -10 -4 -10 -20
0 -5 -116 20 -157 30 -49 61 -83 77 -83 6 0 12 -5 12 -12 0 -6 3 -9 6 -5 3 3
-12 27 -34 54 -54 65 -62 84 -63 142 -2 83 43 129 149 153 42 9 64 9 100 -1
68 -18 71 -28 11 -35 -21 -2 -33 -9 -31 -17 2 -9 0 -10 -10 -2 -7 6 -29 10
-48 8 -82 -6 -142 -56 -135 -113 2 -19 9 -39 14 -46 5 -6 10 -15 10 -21 1 -5
6 -10 13 -10 7 0 15 -11 19 -25 4 -14 7 -19 8 -12 1 7 6 10 11 7 6 -4 8 -10 6
-14 -6 -9 -4 -9 79 -16 33 -3 66 -2 73 3 7 5 18 38 24 73 10 58 9 68 -11 107
-12 23 -26 42 -31 42 -20 0 -9 16 12 17 18 2 20 0 8 -7 -13 -8 -12 -10 2 -10
9 0 21 6 25 13 4 6 26 18 48 26 22 8 46 16 53 18 7 3 12 -3 12 -16 0 -12 4
-21 10 -21 6 0 10 35 9 83 0 45 5 109 10 142 6 33 11 66 11 73 0 13 -29 17
-31 5z m-177 -342 c27 -5 54 -141 27 -141 -5 0 -7 5 -3 12 4 7 3 8 -5 4 -9 -6
-9 -11 0 -22 6 -7 9 -20 6 -28 -8 -19 -73 -32 -91 -17 -7 6 -15 8 -18 5 -3 -3
-20 12 -37 33 -43 52 -42 94 2 126 40 31 68 37 119 28z"/>
<path d="M1223 2688 c-18 -6 -33 -15 -33 -20 0 -5 4 -7 9 -3 5 3 12 1 16 -5 9
-15 25 -12 25 5 0 8 7 15 15 15 8 0 15 5 15 10 0 12 -4 11 -47 -2z"/>
<path d="M1521 2679 c-1 -15 6 -32 14 -39 8 -7 15 -17 15 -22 0 -5 12 -25 26
-44 15 -19 23 -34 19 -34 -4 0 -2 -7 5 -15 10 -12 10 -15 -4 -15 -9 0 -16 -4
-16 -9 0 -9 -98 -37 -114 -32 -6 1 -19 -2 -30 -8 -20 -9 -70 -20 -126 -27 -19
-2 -21 -1 -10 6 10 7 11 10 3 10 -40 0 13 39 60 44 35 4 48 16 16 15 -43 -1
-187 -37 -151 -38 21 -1 32 -6 32 -16 0 -8 5 -15 11 -15 15 0 -10 -23 -41 -37
l-25 -12 25 0 c65 -2 343 71 427 110 l48 23 -47 4 c-42 3 -47 6 -53 32 -4 17
-13 34 -21 38 -9 5 -26 31 -39 58 -20 42 -24 45 -24 23z"/>
<path d="M1830 2608 c0 -5 -5 -6 -12 -2 -6 4 -17 -1 -25 -11 -7 -11 -13 -15
-13 -11 0 4 -7 1 -15 -8 -8 -8 -15 -21 -15 -28 0 -10 2 -10 8 -1 15 24 97 53
151 53 30 0 52 3 48 6 -10 10 -127 12 -127 2z"/>
<path d="M1880 2555 c-25 -7 -56 -16 -70 -20 -14 -5 -32 -14 -41 -21 -13 -11
-19 -11 -37 2 -18 13 -22 13 -22 1 0 -18 -90 -58 -202 -91 -142 -41 -459 -99
-539 -98 l-36 0 12 -35 c10 -28 9 -47 -2 -96 -8 -34 -16 -63 -17 -64 -1 -1
-18 -9 -37 -16 -36 -15 -81 -16 -114 -2 -14 6 -12 1 7 -14 39 -31 121 -20 161
22 l27 29 0 -41 c0 -23 -5 -41 -11 -41 -6 0 -7 -5 -2 -12 11 -18 10 -62 -2
-70 -5 -4 -11 -12 -11 -18 -3 -23 -5 -24 -15 -10 -9 13 -10 12 -5 -2 3 -10 1
-20 -4 -23 -5 -3 -6 -13 -3 -22 5 -11 3 -14 -6 -8 -10 6 -11 3 -1 -15 6 -12
10 -31 7 -41 -6 -21 39 -109 55 -109 5 0 0 15 -11 34 -30 48 -29 132 3 179 21
31 24 49 29 163 3 71 8 143 11 159 5 24 4 26 -4 10 -10 -20 -10 -20 -7 0 2 15
9 19 27 17 60 -8 195 -3 198 7 2 6 8 8 13 5 6 -3 15 -1 22 4 7 6 14 10 17 10
19 -1 90 25 90 32 0 6 18 10 41 10 22 0 38 3 36 8 -3 4 11 7 32 7 31 1 95 24
151 55 10 5 24 0 43 -19 20 -18 26 -21 22 -8 -4 9 -11 17 -16 17 -16 0 -9 22
14 41 30 25 33 24 33 -17 0 -19 6 -39 13 -43 9 -6 7 -10 -8 -14 -14 -3 -19
-10 -15 -21 3 -9 11 -16 16 -16 6 0 8 7 4 15 -3 9 0 15 9 15 8 0 15 -6 15 -14
0 -8 8 -29 18 -46 13 -25 14 -34 5 -37 -7 -3 -13 -14 -13 -26 0 -27 31 -139
42 -154 5 -7 7 -21 3 -33 -4 -12 -2 -20 5 -20 6 0 8 5 5 10 -3 6 1 10 10 10 9
0 24 -17 34 -40 10 -22 20 -38 23 -35 3 3 5 -13 5 -35 0 -21 -4 -37 -9 -34 -4
3 -8 -2 -8 -10 0 -9 -13 -30 -28 -47 l-28 -31 -12 27 c-10 21 -10 25 0 19 7
-4 5 2 -4 13 -10 11 -18 24 -18 30 0 5 -9 18 -20 28 -12 10 -19 24 -16 31 3 7
-6 15 -20 18 -14 4 -23 10 -20 14 3 4 1 14 -5 22 -7 12 -9 11 -9 -6 0 -12 -7
-28 -16 -35 -15 -12 -16 -10 -10 18 9 38 -9 108 -35 142 l-20 25 -6 -22 c-4
-17 -11 -21 -24 -17 -12 4 -19 2 -19 -6 0 -6 -8 -17 -17 -24 -16 -12 -16 -15
7 -33 20 -17 23 -24 14 -39 -16 -26 -46 -22 -61 7 -9 17 -13 20 -13 8 0 -20
26 -48 45 -48 19 0 45 28 45 47 0 9 -7 25 -17 35 -13 14 -13 18 -2 18 8 0 24
3 36 6 17 5 22 0 28 -25 10 -47 -3 -71 -48 -91 l-42 -18 77 1 c63 2 81 -2 105
-19 39 -29 63 -80 63 -137 0 -55 -16 -90 -59 -130 -35 -32 -103 -56 -109 -38
-2 6 -14 11 -27 11 -12 0 -25 7 -29 15 -3 8 -13 15 -21 15 -10 0 -13 -5 -9
-12 5 -7 3 -8 -5 -4 -7 5 -10 14 -7 22 3 8 1 14 -4 14 -6 0 -10 -4 -10 -9 0
-5 -3 -17 -7 -27 -4 -10 -2 -15 4 -11 16 10 68 -8 68 -24 0 -8 -13 -16 -32
-19 -26 -4 -31 -8 -22 -20 8 -11 12 -12 15 -3 3 7 12 9 20 6 8 -3 20 2 27 11
9 12 20 15 45 10 46 -9 40 -32 -13 -45 -26 -7 -42 -16 -38 -22 4 -6 1 -7 -7
-2 -17 11 -61 15 -55 6 2 -5 -7 -14 -20 -21 -20 -11 -27 -11 -42 1 -13 11 -15
11 -9 1 7 -11 4 -11 -13 0 -18 11 -23 11 -31 -2 -9 -13 -11 -13 -20 0 -9 13
-11 13 -20 0 -6 -10 -10 -11 -10 -3 0 7 -3 12 -7 12 -42 -7 -53 9 -27 36 19
19 40 14 36 -8 -2 -15 0 -15 25 -2 15 8 36 12 45 9 11 -3 22 3 30 15 11 19 14
19 30 4 10 -9 21 -13 26 -9 4 4 -2 14 -12 22 -11 7 -16 17 -13 21 4 3 0 14 -8
22 -10 12 -45 163 -45 197 0 2 22 13 49 25 55 23 91 56 75 67 -6 4 -13 15 -17
24 -3 10 -18 20 -32 24 -19 5 -25 13 -25 33 0 31 8 44 35 59 20 11 20 11 0 12
-18 1 -18 2 3 11 13 5 20 14 17 20 -8 13 -51 -14 -48 -30 2 -6 -5 -7 -14 -4
-11 4 -13 8 -5 11 7 2 12 10 12 17 0 7 7 16 16 19 9 4 14 9 11 13 -12 11 -54
-25 -67 -57 -11 -26 -11 -36 -1 -52 10 -16 10 -19 -1 -12 -7 4 -4 -4 7 -17 20
-23 27 -59 12 -59 -4 0 -33 -14 -64 -30 -59 -32 -103 -34 -103 -5 0 20 32 35
77 35 49 0 83 10 83 22 0 7 -18 9 -44 6 l-44 -5 -6 48 c-8 62 -49 99 -107 99
-47 0 -94 -22 -109 -50 -14 -26 -13 -153 1 -144 4 2 10 -3 13 -12 3 -8 2 -12
-4 -9 -6 3 -10 1 -10 -4 0 -6 -7 -11 -15 -11 -8 0 -15 -6 -15 -13 0 -8 -9 -22
-19 -31 -12 -11 -22 -38 -27 -69 l-7 -52 -18 55 c-21 65 -25 45 -5 -23 8 -26
10 -47 6 -47 -5 0 -11 6 -13 13 -4 8 -6 9 -6 0 -1 -16 27 -43 45 -43 13 0 18
-12 15 -32 0 -5 6 -8 14 -8 8 0 19 -9 25 -19 5 -11 19 -23 30 -26 11 -3 20
-11 20 -16 0 -6 -4 -7 -10 -4 -6 3 -7 -1 -4 -10 4 -9 13 -14 21 -10 12 4 14 0
9 -21 -5 -17 -3 -23 4 -19 5 3 10 -1 10 -10 0 -8 7 -18 15 -21 8 -4 13 -9 10
-13 -2 -4 11 -8 30 -9 28 -1 35 2 35 18 0 24 9 29 41 23 21 -4 25 -9 21 -29
-3 -19 -11 -24 -36 -25 -26 0 -28 -2 -11 -8 11 -5 26 -5 34 -1 7 4 28 4 46 0
18 -4 39 -4 46 1 10 6 3 9 -18 9 -28 0 -33 3 -33 25 0 22 4 25 35 25 31 0 35
-3 35 -25 0 -14 5 -25 10 -25 6 0 10 -9 10 -20 0 -11 -5 -20 -11 -20 -5 0 -7
-5 -4 -11 4 -6 10 -8 13 -4 3 3 12 -7 19 -22 l13 -28 -4 31 c-3 18 -8 43 -11
57 -6 24 -5 25 39 25 57 -1 79 15 71 53 -6 24 -3 28 24 34 54 12 72 -22 24
-45 -19 -8 -23 -14 -14 -18 7 -2 17 2 22 9 5 8 9 10 9 6 0 -4 12 4 28 18 23
21 28 23 31 9 2 -14 5 -15 13 -3 6 10 7 6 2 -11 -4 -14 -15 -31 -25 -38 -19
-13 -22 -52 -4 -52 5 0 2 -5 -7 -11 -25 -14 -23 -32 2 -24 19 6 20 2 20 -60 0
-36 -5 -76 -11 -87 -6 -11 -7 -18 -1 -15 14 10 2 -41 -14 -54 -8 -6 -14 -8
-14 -4 0 4 -7 1 -16 -6 -15 -12 -16 -10 -10 21 5 28 5 31 -4 17 -6 -9 -21 -17
-33 -17 -21 -1 -78 -65 -93 -105 -5 -12 -16 -14 -54 -9 -28 4 -50 2 -54 -4 -3
-6 2 -8 13 -5 14 4 20 -2 25 -27 8 -44 8 -80 -2 -80 -9 0 -43 61 -42 74 1 5
-9 14 -22 20 -24 12 -68 71 -68 90 1 6 8 -2 17 -19 20 -39 43 -65 57 -65 8 0
8 2 0 8 -6 4 -19 22 -28 40 l-17 33 42 41 c48 46 107 62 137 36 18 -17 62 -33
62 -24 0 12 -41 47 -65 56 -14 5 -39 7 -57 3 -21 -4 -29 -3 -25 5 4 6 0 9 -10
7 -10 -1 -24 3 -32 9 -11 8 -13 8 -7 -2 10 -16 -97 -66 -126 -59 -16 5 -18 3
-9 -6 6 -6 11 -18 11 -26 0 -24 -18 -1 -34 44 -8 22 -15 32 -15 22 -1 -18 19
-70 38 -96 8 -12 12 -12 25 -2 13 11 17 10 25 -11 5 -13 25 -45 45 -71 20 -26
36 -55 36 -66 0 -10 9 -26 21 -36 16 -16 19 -26 14 -57 -5 -25 -3 -38 4 -38 6
0 11 16 11 35 0 26 3 33 15 29 8 -4 13 -10 10 -14 -3 -5 0 -21 6 -37 8 -19 13
-23 16 -13 6 21 18 50 33 82 12 26 14 27 42 12 16 -8 32 -22 35 -30 3 -7 9
-14 15 -14 5 0 6 4 3 10 -3 6 1 7 9 4 9 -3 13 -10 10 -15 -3 -5 7 -14 22 -19
21 -8 24 -14 16 -22 -17 -17 -15 -28 3 -22 43 17 -28 100 -105 123 -22 6 -40
17 -40 23 0 6 19 43 43 83 40 69 44 72 73 68 25 -4 36 1 58 23 l26 29 0 -45
c-1 -25 -7 -81 -15 -125 -16 -87 -19 -141 -5 -90 4 17 11 47 14 68 9 49 26 48
26 -3 0 -24 -5 -40 -12 -40 -9 0 -9 -3 -1 -11 6 -6 9 -19 7 -28 -2 -9 2 -2 11
16 15 33 42 53 69 53 20 0 20 -27 1 -64 -8 -15 -17 -38 -19 -51 -2 -12 -9 -31
-14 -41 -25 -45 -103 -248 -122 -315 -19 -68 -29 -223 -15 -237 3 -3 5 21 5
54 1 79 36 217 77 293 7 15 13 32 13 39 0 6 5 12 11 12 6 0 9 7 5 15 -3 8 1
27 9 42 23 48 40 90 44 111 1 4 16 -10 35 -30 19 -20 37 -34 42 -30 4 4 4 -1
1 -10 -8 -22 11 -34 26 -19 9 9 7 11 -8 6 -16 -6 -17 -5 -5 4 11 7 19 6 33 -7
10 -9 18 -12 17 -7 -5 24 1 36 17 33 10 -2 18 2 18 7 0 6 3 15 6 20 8 12 4 64
-6 87 -5 13 0 20 20 28 14 5 23 14 20 20 -3 5 -1 10 4 10 6 0 11 -6 11 -12 0
-9 3 -10 8 -2 4 6 17 16 30 23 12 7 20 17 16 23 -4 6 -3 8 3 5 12 -7 36 16 27
26 -3 3 4 8 15 12 12 3 19 11 16 16 -4 5 1 9 10 9 10 0 13 5 9 12 -5 8 -1 9
12 4 15 -6 16 -5 7 5 -9 9 -40 -8 -137 -77 -69 -49 -125 -92 -126 -95 0 -3 13
-19 29 -35 l29 -29 -37 -26 -36 -26 -54 52 -55 53 32 16 c35 18 46 20 38 7
-10 -15 58 13 94 40 183 134 244 171 233 143 -4 -10 0 -12 11 -8 21 8 20 -5
-4 -36 -32 -41 -23 -46 15 -7 39 40 42 47 20 47 -9 0 -18 7 -21 15 -4 8 -12
15 -20 15 -22 0 -17 12 26 73 41 57 41 86 0 42 -13 -14 -20 -25 -17 -25 4 0
-5 -14 -20 -31 -24 -26 -29 -28 -39 -15 -6 9 -16 16 -22 16 -7 0 -9 7 -5 17 5
12 2 15 -9 11 -9 -4 -21 -1 -27 5 -14 14 -23 4 -15 -17 3 -9 13 -16 22 -16 13
0 12 -3 -3 -14 -11 -8 -25 -12 -31 -9 -7 3 -20 0 -29 -5 -16 -8 -16 -9 -1 -15
10 -4 15 -3 12 2 -3 5 4 9 17 8 12 0 36 3 52 8 52 13 15 -10 -55 -35 -36 -13
-103 -41 -148 -62 -46 -21 -90 -38 -98 -38 -7 0 -28 28 -45 62 -29 56 -32 74
-36 178 -3 63 -10 118 -15 121 -7 4 -6 14 1 27 6 11 23 53 37 94 15 40 47 103
71 140 l45 66 -21 47 -21 47 30 24 c68 58 58 158 -24 237 -24 22 -36 45 -41
74 -4 24 -11 45 -16 49 -12 7 -12 41 1 49 5 3 23 -4 39 -16 73 -54 197 21 230
139 17 58 -17 152 -54 152 -5 0 -4 -4 4 -9 12 -8 12 -12 2 -24 -8 -10 -9 -17
-1 -22 5 -3 10 -1 10 5 0 6 5 8 11 4 6 -3 9 -17 6 -30 -2 -13 0 -24 5 -24 22
0 -11 -90 -44 -121 -10 -9 -15 -19 -12 -22 9 -9 -35 -29 -48 -21 -7 4 -8 3 -4
-4 11 -18 -55 -15 -82 4 -12 8 -27 12 -32 9 -6 -3 -10 2 -10 12 0 10 -11 35
-25 55 -14 20 -25 44 -25 53 0 9 -4 13 -10 10 -7 -4 -7 3 0 20 5 14 6 24 1 21
-5 -4 -7 3 -4 15 4 16 8 17 14 7 7 -10 9 -10 9 0 0 9 10 11 35 6 23 -4 35 -2
35 5 0 27 122 8 142 -23 27 -40 -19 -143 -72 -162 -19 -7 -29 -13 -22 -13 28
-2 78 30 95 60 9 17 17 50 17 74 0 35 -6 49 -30 71 -21 20 -26 31 -17 36 7 5
-1 6 -18 2 -29 -6 -29 -6 -10 9 24 19 23 19 -35 2z m-616 -470 c-4 -8 -10 -15
-14 -15 -4 0 -7 -8 -6 -17 1 -12 -5 -17 -16 -15 -23 4 -23 -16 -1 -40 20 -22
41 -23 65 -1 23 21 23 32 -4 60 l-21 23 30 0 c30 0 42 -17 43 -60 0 -19 -81
-62 -116 -62 -53 0 -72 71 -32 117 25 28 82 36 72 10z m231 -87 c4 4 2 -4 -5
-16 -11 -22 -10 -23 9 -17 13 4 21 2 21 -5 0 -8 -11 -11 -30 -8 -23 3 -30 1
-26 -9 3 -7 2 -13 -2 -14 -4 0 -18 -2 -32 -5 -24 -4 -24 -3 7 26 23 21 31 35
26 47 -6 15 -4 16 9 6 8 -7 18 -9 23 -5z m-150 -109 l60 -16 0 -49 c0 -27 2
-51 5 -54 11 -10 28 -85 27 -115 -2 -27 -5 -30 -41 -33 -22 -2 -42 2 -46 8 -6
9 -13 9 -28 1 -11 -6 -33 -11 -47 -11 -21 0 -26 -4 -21 -16 4 -9 2 -22 -4 -29
-8 -9 -5 -14 12 -19 l23 -6 -24 -20 c-33 -28 -37 -26 -54 23 -15 43 -7 84 13
72 5 -3 20 0 32 7 13 7 27 12 31 13 5 0 14 8 21 18 7 9 19 17 27 18 9 0 10 2
2 5 -6 3 -23 -2 -37 -12 -17 -11 -26 -12 -26 -4 0 6 -8 9 -17 7 -10 -3 -30 -8
-45 -11 -16 -4 -28 -11 -28 -17 0 -6 5 -7 10 -4 6 3 10 1 10 -4 0 -15 -26 -14
-59 4 -59 30 -86 150 -49 216 25 45 49 60 118 74 51 11 56 10 65 -9 7 -14 30
-26 70 -37z m482 -119 c8 -21 8 -32 1 -37 -6 -3 -8 -1 -4 5 3 6 2 13 -4 17 -5
3 -10 0 -10 -8 0 -8 -6 -20 -14 -27 -8 -6 -13 -17 -10 -25 7 -17 -12 -29 -22
-14 -4 8 -3 9 4 5 16 -10 15 7 0 23 -8 8 -8 11 -2 8 18 -10 36 19 29 45 -5 19
-4 20 5 8 10 -12 11 -11 7 8 -7 32 7 27 20 -8z m-91 -95 c4 -8 9 -13 13 -11 4
3 7 -5 8 -17 0 -12 -1 -16 -4 -9 -9 22 -25 12 -21 -13 3 -14 1 -25 -4 -25 -5
0 -7 -4 -4 -9 3 -5 -5 -11 -19 -13 -33 -7 -62 23 -43 43 7 8 21 26 31 42 19
30 35 35 43 12z m-172 -142 c4 -22 -11 -33 -47 -33 -24 0 -28 4 -25 22 2 16
12 25 33 29 35 6 36 6 39 -18z m614 -362 c-4 -10 -70 -62 -192 -148 -86 -61
-122 -79 -96 -48 11 13 10 14 -2 10 -10 -4 -26 6 -43 27 -24 28 -25 33 -11 36
9 2 25 -2 34 -10 15 -11 16 -11 4 3 -10 14 -10 17 5 22 10 2 27 8 37 13 14 5
17 4 12 -4 -4 -8 -2 -10 8 -6 8 3 12 12 9 20 -3 10 2 14 20 14 13 0 30 7 37
15 7 8 18 14 24 13 6 -1 30 8 53 20 62 32 65 27 9 -13 -27 -19 -57 -35 -67
-35 -20 0 -42 -24 -31 -34 4 -4 2 -7 -3 -6 -24 5 -37 -1 -31 -15 6 -16 -28
-40 -44 -30 -5 3 -7 -1 -4 -9 5 -12 11 -11 41 6 26 16 31 23 21 30 -10 8 -9 9
3 5 16 -5 115 65 154 109 19 22 60 33 53 15z"/>
<path d="M978 2393 c-21 -9 -38 -19 -38 -23 0 -10 67 13 82 28 15 15 2 14 -44
-5z"/>
<path d="M1460 2263 c-24 -9 -50 -35 -44 -44 7 -12 46 -11 64 1 11 8 8 9 -13
4 -21 -5 -26 -3 -22 9 4 8 16 19 28 25 23 11 13 15 -13 5z"/>
<path d="M1119 2230 l-24 -20 30 15 c34 17 115 20 115 5 0 -5 -12 -10 -26 -10
-40 0 -105 -22 -101 -34 5 -13 207 -9 222 5 14 14 -17 39 -61 49 -68 16 -129
12 -155 -10z m151 -10 c0 -5 7 -7 15 -4 8 4 15 1 15 -5 0 -6 -15 -11 -32 -10
-18 0 -27 3 -20 6 6 2 10 9 6 14 -3 5 0 9 5 9 6 0 11 -4 11 -10z"/>
<path d="M1519 2090 c-1 -6 -2 -16 -3 -22 -4 -22 5 -28 24 -18 11 6 17 17 14
24 -7 17 -34 29 -35 16z"/>
<path d="M2385 2022 c-11 -2 -24 -8 -29 -13 -12 -11 -46 -12 -46 -1 0 14 -42
11 -65 -4 -16 -10 -35 -13 -57 -9 -21 4 -44 1 -62 -9 -16 -8 -34 -12 -40 -9
-6 4 -4 -2 4 -12 9 -11 10 -16 2 -11 -14 8 -85 -31 -77 -43 2 -5 -7 -14 -20
-21 -13 -7 -22 -16 -20 -21 3 -4 -7 -11 -23 -17 -37 -13 -68 -42 -76 -72 -7
-24 -6 -24 8 -6 9 11 16 23 16 28 0 4 8 8 18 8 10 0 28 7 40 16 12 8 26 13 31
10 13 -9 32 19 25 38 -3 9 -1 16 4 16 6 0 41 21 78 46 47 32 70 42 77 35 16
-16 30 -14 72 15 27 18 41 22 48 15 6 -6 19 -11 29 -11 23 0 24 -20 1 -21 -10
0 -28 -2 -41 -5 -16 -3 -21 0 -16 8 5 9 4 10 -4 3 -9 -8 -5 -43 14 -135 35
-165 31 -154 48 -138 16 16 31 58 20 58 -4 0 -12 -7 -19 -16 -9 -13 -12 -13
-12 -3 0 8 -5 41 -12 73 -16 84 -15 122 3 107 17 -14 38 9 42 46 4 40 55 61
68 28 3 -8 12 -15 21 -15 8 0 15 7 15 15 0 19 11 19 58 -1 50 -21 173 -64 184
-64 4 0 8 7 8 16 0 8 -4 12 -10 9 -5 -3 -10 -2 -10 3 0 5 -9 12 -20 15 -13 3
-18 1 -13 -6 4 -7 0 -6 -10 1 -9 8 -21 11 -27 7 -5 -3 -10 -3 -10 2 0 14 -49
31 -73 26 -21 -5 -21 -5 -3 9 18 14 17 15 -22 13 -22 -1 -48 -7 -56 -15 -12
-9 -16 -9 -16 -1 0 7 -4 10 -9 7 -5 -4 -11 -3 -13 2 -1 4 -12 6 -23 4z"/>
<path d="M2465 1970 c-9 -15 -65 -222 -64 -240 0 -8 7 7 15 34 9 26 17 46 20
44 2 -3 -1 -19 -7 -37 -6 -18 -9 -35 -5 -38 3 -4 6 -1 6 5 0 6 7 9 17 5 11 -4
14 -3 9 6 -14 21 -13 84 2 133 12 42 16 47 32 38 13 -7 21 -5 31 7 12 14 12
16 -3 11 -22 -9 -56 16 -38 27 9 6 11 4 5 -5 -6 -10 -4 -12 7 -7 9 3 25 -1 36
-8 10 -8 22 -12 24 -9 9 9 38 -45 32 -59 -6 -18 12 -32 21 -17 3 5 1 10 -6 10
-7 0 -10 2 -7 5 3 3 17 0 32 -6 28 -13 28 -16 -1 -89 -12 -32 -13 -33 -8 -5 3
17 9 39 12 50 10 37 -5 10 -21 -35 -9 -27 -12 -46 -6 -48 6 -2 10 -11 10 -20
0 -13 -2 -14 -9 -4 -12 19 -22 -23 -12 -50 5 -15 17 10 45 99 21 65 41 124 43
130 3 7 -3 16 -13 19 -11 3 -54 19 -96 35 -86 32 -94 34 -103 19z m187 -75 c4
-5 8 -14 8 -20 0 -5 -4 -4 -9 3 -4 8 -11 13 -15 13 -22 -3 -36 0 -36 9 0 12
43 8 52 -5z"/>
<path d="M2369 1958 c0 -7 -2 -85 -3 -173 -2 -116 0 -149 6 -120 5 22 10 96
11 165 l2 125 28 -3 c15 -1 27 2 27 8 0 15 -70 13 -71 -2z"/>
<path d="M185 1951 c16 -7 15 -9 -12 -14 -19 -4 -34 -14 -38 -27 -4 -12 -11
-17 -18 -14 -7 4 -9 4 -5 -1 4 -4 2 -15 -5 -23 -10 -13 -9 -14 11 -3 15 8 22
8 22 1 0 -6 5 -8 11 -4 8 5 8 9 -1 14 -8 5 2 18 29 39 23 18 41 29 41 24 0 -5
-5 -14 -10 -19 -7 -7 -5 -16 7 -27 17 -15 18 -13 18 21 0 35 -2 37 -35 39 -25
1 -29 -1 -15 -6z"/>
<path d="M2181 1939 c-24 -5 -48 -6 -52 -3 -5 3 14 -44 42 -103 28 -59 69
-148 91 -198 45 -100 54 -114 44 -70 -4 17 -9 57 -12 90 -5 65 -9 74 -25 58
-7 -7 -6 -22 5 -48 9 -21 14 -40 12 -42 -5 -6 -26 32 -31 55 -2 9 -6 26 -10
37 -6 17 -5 18 5 5 10 -13 11 -13 7 0 -2 8 -10 14 -16 12 -7 -1 -11 3 -10 10
3 29 -2 48 -12 46 -6 -2 -14 3 -16 10 -3 8 1 10 11 6 12 -5 15 -2 10 10 -3 9
-10 13 -15 10 -14 -8 -39 59 -32 84 3 12 12 22 21 22 13 0 13 -2 -1 -18 -10
-10 -17 -23 -17 -28 0 -4 14 6 30 24 17 18 30 35 30 38 0 5 -1 5 -59 -7z"/>
<path d="M186 1895 c-3 -8 13 -44 35 -80 31 -48 40 -71 35 -89 -6 -24 6 -40
28 -41 5 0 11 -6 14 -14 3 -8 0 -11 -6 -7 -6 4 -8 -2 -5 -13 4 -15 0 -19 -14
-17 -10 2 -17 10 -15 20 2 9 -2 16 -8 16 -5 0 -9 3 -9 8 3 20 -3 30 -21 35
-11 3 -20 1 -20 -4 0 -5 -5 -9 -11 -9 -7 0 -9 10 -5 28 4 18 3 22 -2 13 -8
-11 -10 -11 -14 0 -3 8 -5 0 -4 -18 0 -17 4 -29 8 -27 10 6 55 -42 63 -67 9
-28 41 -23 64 10 l21 30 -35 58 c-19 32 -35 66 -35 76 0 11 -9 30 -20 44 -11
14 -20 32 -20 39 0 19 -17 26 -24 9z"/>
<path d="M2641 1737 c-30 -94 -56 -179 -59 -187 -2 -8 7 -2 22 14 28 31 33 41
15 30 -16 -9 -4 26 39 116 26 54 37 92 40 138 2 34 3 62 1 62 -2 0 -28 -78
-58 -173z"/>
<path d="M736 1885 c-8 -9 -18 -15 -21 -14 -3 0 -18 -4 -33 -10 -25 -11 -27
-16 -27 -72 0 -58 -2 -63 -34 -88 -58 -44 -80 -65 -83 -81 -2 -8 -8 -19 -15
-25 -7 -5 -15 -23 -19 -38 -6 -27 -6 -27 20 -16 19 9 23 15 15 25 -8 9 -4 17
14 29 31 20 44 46 19 39 -9 -3 -1 3 18 14 39 21 49 20 30 -3 -7 -8 -10 -25 -6
-39 5 -19 10 -22 33 -18 18 4 22 7 11 10 -22 4 -18 61 5 74 9 5 17 8 18 6 7
-27 4 -40 -9 -47 -16 -9 -16 -10 1 -16 9 -4 24 -2 32 5 17 14 20 50 5 50 -5 0
-10 4 -10 10 0 5 14 7 33 4 25 -5 29 -3 17 6 -12 9 -11 10 8 5 12 -3 32 -3 44
1 l23 7 -23 8 c-16 6 -47 2 -95 -11 -91 -25 -98 -25 -64 5 15 14 25 25 21 25
-3 0 -1 7 6 15 7 8 10 31 7 55 -4 37 12 69 21 42 9 -29 59 -2 86 46 10 18 -29
15 -48 -3z"/>
<path d="M2080 1883 c-19 -8 -37 -16 -39 -18 -4 -5 92 -185 99 -185 3 0 6 9 6
19 0 11 -4 17 -8 15 -4 -3 -8 1 -8 8 0 7 -16 40 -36 72 -38 64 -39 60 13 93
24 16 15 15 -27 -4z"/>
<path d="M157 1859 c-9 -5 -23 -7 -30 -4 -6 4 -1 -2 13 -13 25 -20 46 -20 34
0 -4 7 -2 8 5 4 9 -6 9 -11 0 -22 -16 -19 39 -108 58 -93 14 12 -4 62 -19 53
-5 -3 -8 0 -7 7 3 12 -27 80 -34 79 -1 0 -10 -5 -20 -11z"/>
<path d="M605 1845 c-16 -8 -25 -14 -20 -15 6 0 2 -5 -8 -11 -9 -5 -22 -7 -27
-4 -6 3 -10 -1 -10 -10 0 -9 -4 -13 -10 -10 -5 3 -10 1 -10 -5 0 -6 -4 -9 -9
-6 -20 13 -29 -24 -28 -106 1 -47 5 -84 9 -82 3 2 4 37 2 77 -3 39 -1 77 3 82
4 6 28 23 53 37 43 25 101 68 90 67 -3 0 -18 -7 -35 -14z"/>
<path d="M2522 1848 c-26 -26 -2 -64 30 -47 22 12 24 45 2 53 -20 8 -18 8 -32
-6z"/>
<path d="M1992 1812 c-18 -15 -32 -31 -32 -36 0 -7 57 -77 115 -142 6 -6 37
-48 70 -94 32 -45 61 -77 63 -71 3 9 -29 59 -63 97 -34 39 -45 56 -45 70 0 14
3 13 18 -3 9 -10 14 -14 10 -8 -4 7 -5 15 -1 18 3 4 1 7 -5 7 -6 0 -9 6 -6 13
5 15 -74 122 -83 113 -3 -3 14 -28 37 -56 31 -37 40 -54 32 -62 -8 -8 -28 6
-73 51 l-61 63 33 34 c40 41 36 44 -9 6z"/>
<path d="M605 1807 c-16 -12 -43 -29 -60 -38 -28 -15 -30 -21 -33 -79 -2 -35
1 -59 6 -56 5 3 7 27 4 54 -5 56 12 78 35 47 7 -11 13 -15 14 -9 0 5 4 0 9
-11 7 -15 9 -10 10 25 2 38 3 41 10 20 8 -25 8 -25 9 4 1 16 8 38 18 48 21 24
15 22 -22 -5z"/>
<path d="M1670 1789 c0 -24 23 -21 28 4 2 10 -3 17 -12 17 -10 0 -16 -9 -16
-21z"/>
<path d="M1922 1778 c-12 -12 7 -45 64 -108 18 -19 67 -80 109 -135 42 -55 80
-99 86 -97 5 1 8 -1 8 -5 -4 -23 6 -35 53 -70 80 -58 82 -59 68 -32 -11 19
-10 21 4 16 11 -4 30 6 57 30 55 50 61 64 50 115 -6 27 -6 47 0 54 10 13 -13
39 -24 27 -4 -3 -7 0 -7 8 0 8 13 29 29 46 28 31 30 31 45 14 15 -17 15 -19 1
-24 -10 -4 -15 -1 -15 10 0 12 -3 14 -10 7 -6 -6 -8 -18 -4 -27 4 -12 11 -14
30 -7 13 5 24 6 24 1 0 -4 14 -7 30 -6 17 1 30 -2 30 -6 0 -4 3 -16 7 -26 6
-17 6 -17 -14 0 -25 22 -33 22 -33 -3 0 -10 -9 -24 -21 -30 -11 -7 -18 -14
-15 -17 3 -4 1 -12 -5 -20 -9 -9 -8 -13 0 -13 6 0 11 3 11 8 0 4 11 19 24 35
21 25 24 26 31 10 5 -10 9 -25 11 -33 2 -8 10 -20 19 -26 9 -7 13 -19 9 -30
-5 -16 -4 -16 5 -4 9 13 11 13 11 0 0 -20 -35 -50 -60 -50 -29 0 -70 22 -63
33 3 6 1 7 -5 3 -7 -4 -12 -2 -12 3 0 6 -4 11 -10 11 -6 0 -5 -10 2 -25 7 -15
17 -24 25 -21 7 3 13 1 13 -5 0 -12 89 -10 106 3 16 12 26 -48 15 -94 -5 -21
-6 -38 -3 -38 3 0 1 -5 -6 -12 -13 -13 -17 -42 -4 -34 5 3 8 -5 7 -17 -2 -12
-7 -21 -13 -20 -7 2 -9 -4 -5 -14 3 -9 0 -21 -8 -27 -8 -6 -14 -18 -14 -26 0
-8 -6 -14 -12 -13 -7 2 -13 -6 -13 -16 0 -41 -23 -68 -33 -38 -2 6 -2 0 0 -15
3 -16 0 -28 -6 -28 -5 0 -9 -12 -7 -27 1 -21 -7 -36 -33 -60 -20 -18 -31 -32
-24 -33 6 0 15 5 18 10 12 20 24 9 22 -19 -1 -17 -7 -27 -14 -24 -6 2 -14 -5
-18 -16 -3 -12 -11 -18 -17 -15 -6 4 -5 10 3 15 8 5 9 9 3 9 -6 0 -19 -9 -29
-20 -14 -16 -29 -20 -61 -19 -41 3 -42 3 -28 24 12 19 12 22 -1 22 -8 0 -11
-5 -8 -11 4 -6 -1 -4 -12 4 -10 8 -21 15 -24 14 -18 -3 -41 10 -37 21 2 6 1
17 -4 24 -5 8 -9 1 -12 -20 -11 -70 94 -123 195 -100 56 13 77 36 78 85 0 31
2 36 9 21 13 -33 -1 -77 -33 -105 -44 -36 -127 -80 -153 -80 -37 0 -113 110
-115 167 0 24 -1 25 -8 8 -10 -24 -9 -29 12 -79 17 -39 14 -64 -3 -36 -6 8
-10 10 -10 4 0 -19 38 -47 56 -40 12 5 15 2 10 -11 -4 -10 -4 -14 0 -10 4 4
12 0 18 -7 16 -21 56 -23 92 -5 17 9 45 15 61 14 22 -1 30 3 30 14 0 42 2 44
21 30 15 -13 16 -12 4 3 -8 9 -9 19 -4 22 11 7 25 -40 17 -55 -4 -5 -11 -6
-17 -3 -7 5 -7 1 0 -12 8 -14 5 -28 -9 -56 -10 -20 -19 -43 -19 -51 0 -19 -24
-67 -33 -67 -5 0 -6 -4 -3 -9 3 -5 -2 -19 -12 -32 -21 -28 -36 -60 -33 -73 1
-5 -5 -6 -14 -3 -9 4 -15 1 -15 -9 0 -8 -20 -24 -44 -35 -40 -17 -47 -18 -79
-4 -20 8 -40 21 -44 29 -4 8 -12 15 -18 15 -5 0 -11 5 -14 12 -2 7 1 9 8 5 7
-5 9 -1 4 9 -5 13 -7 14 -14 3 -8 -12 -13 -4 -10 15 1 5 -3 6 -9 2 -7 -4 -7
-13 1 -27 8 -15 8 -19 0 -14 -20 13 -12 -10 12 -31 37 -35 90 -63 118 -63 28
0 90 38 121 73 38 45 87 145 116 237 30 95 32 120 21 285 -2 32 6 54 64 168
47 92 54 112 47 137 -5 18 -5 32 1 35 5 4 9 42 9 85 0 68 -4 87 -30 136 -29
57 -29 59 -15 108 18 58 18 66 4 46 -8 -11 -9 -7 -4 18 4 20 3 32 -4 32 -6 0
-8 6 -6 13 7 17 -72 50 -103 42 -54 -13 -89 -53 -62 -70 6 -4 7 1 3 11 -5 13
-3 15 7 9 8 -5 11 -4 7 2 -11 17 27 21 79 8 55 -14 75 -36 58 -62 -13 -20 -41
-18 -66 4 -20 18 -25 48 -6 37 7 -4 8 -3 4 4 -9 16 -61 -11 -76 -38 -6 -11
-15 -18 -19 -15 -5 2 -13 -17 -19 -43 -6 -26 -13 -56 -17 -68 -5 -16 0 -25 22
-39 l28 -18 -18 27 c-18 26 -18 27 3 14 11 -7 20 -22 20 -34 0 -19 -47 -74
-67 -77 -4 -1 -7 -5 -6 -9 2 -4 -6 -5 -17 -3 -12 2 -18 0 -15 -6 4 -5 -1 -9
-9 -9 -9 0 -16 8 -16 18 0 13 -2 14 -9 4 -6 -11 -14 -8 -35 11 -14 13 -26 28
-26 32 0 8 -72 99 -99 125 -9 9 -23 29 -32 45 -9 17 -21 29 -28 27 -7 -1 -10
1 -7 6 6 9 -91 132 -105 132 -5 0 -6 7 -3 15 7 18 2 19 -14 3z"/>
<path d="M284 1760 c9 -14 19 -32 23 -40 4 -8 33 -55 65 -104 32 -49 56 -91
53 -94 -3 -4 -10 0 -15 8 -6 9 -10 10 -10 3 0 -6 5 -15 11 -18 5 -4 35 -45 65
-91 54 -81 74 -103 60 -67 -4 10 -3 14 1 9 4 -4 9 -20 11 -34 1 -15 4 -37 5
-50 2 -19 4 -20 13 -7 15 20 25 19 17 -2 -5 -12 -3 -14 8 -9 8 4 3 -2 -11 -14
-14 -12 -20 -19 -13 -16 6 4 17 0 25 -7 7 -8 19 -16 26 -18 10 -3 7 -10 -10
-24 -22 -19 -22 -19 -8 -1 14 18 13 19 -2 13 -13 -4 -15 -2 -11 11 6 15 5 15
-10 3 -9 -7 -15 -16 -13 -20 3 -4 -6 -7 -20 -6 -14 0 -29 7 -34 15 -9 13 -10
13 -10 0 0 -8 -9 -21 -20 -27 -16 -11 -18 -10 -14 2 8 20 -10 19 -26 0 -11
-13 -10 -18 6 -29 16 -13 17 -17 5 -40 -8 -14 -21 -26 -30 -26 -13 -1 -13 -2
2 -11 13 -7 22 -7 31 0 10 9 15 7 19 -10 5 -20 6 -20 24 -2 11 10 14 20 8 22
-30 11 -35 23 -20 51 16 32 56 45 86 29 33 -17 89 -19 89 -3 0 8 -5 13 -12 12
-7 -2 -13 9 -13 26 -1 15 -9 34 -19 41 -16 12 -16 14 3 20 26 8 28 35 3 28
-14 -3 -22 4 -31 24 -6 15 -22 41 -35 57 -23 30 -23 30 -4 62 15 25 16 34 6
40 -7 4 -10 4 -6 -1 4 -4 -1 -20 -12 -35 -12 -16 -18 -36 -14 -47 4 -13 0 -11
-15 7 -23 28 -28 48 -8 31 14 -11 27 -5 27 11 0 5 -4 7 -9 3 -5 -3 -25 18 -44
47 -101 156 -169 256 -188 278 l-21 25 16 -25z"/>
<path d="M1990 1772 c0 -9 56 -62 65 -62 3 0 -7 16 -22 35 -27 34 -43 44 -43
27z"/>
<path d="M765 1745 c-70 -28 -56 -33 22 -8 64 20 67 17 77 -60 4 -28 10 -56
14 -61 11 -18 19 38 10 69 -5 17 -10 36 -12 44 -3 13 -34 42 -45 40 -3 0 -33
-11 -66 -24z"/>
<path d="M2167 1720 c-10 -16 -15 -30 -11 -30 5 0 3 -5 -3 -11 -8 -8 -1 -33
28 -91 36 -76 60 -115 46 -76 -3 10 -3 17 1 17 4 -1 17 -1 30 0 32 2 27 18 -7
23 -17 2 -28 1 -25 -4 3 -4 3 -8 0 -8 -7 0 -56 110 -56 126 0 31 42 7 60 -34
11 -23 17 -42 14 -42 -3 0 2 -7 11 -16 25 -26 24 -13 -7 54 -21 46 -33 62 -48
62 -11 0 -20 7 -20 15 0 8 7 15 15 15 9 0 12 6 9 15 -9 22 -18 19 -37 -15z"/>
<path d="M1041 1645 c-1 -23 4 -46 11 -53 7 -7 9 -12 4 -12 -4 0 1 -13 10 -29
15 -26 16 -32 3 -47 -12 -16 -12 -17 1 -9 38 21 39 25 17 62 -11 20 -26 57
-33 82 l-13 46 0 -40z"/>
<path d="M2314 1645 c3 -22 9 -62 13 -90 l7 -50 6 40 c5 40 -9 117 -24 132 -5
4 -6 -10 -2 -32z"/>
<path d="M1950 1649 c-9 -17 -8 -23 7 -34 28 -21 47 0 26 31 -19 29 -19 29
-33 3z"/>
<path d="M304 1613 c5 -9 -1 -13 -18 -13 -29 0 -43 -17 -27 -33 20 -20 11 -25
-30 -16 -33 8 -49 6 -88 -13 l-48 -22 26 -21 c14 -12 45 -31 68 -42 23 -11 39
-24 35 -28 -4 -4 10 0 32 9 44 18 60 21 33 5 -14 -8 -16 -14 -7 -24 13 -16 3
-58 -11 -49 -6 3 -5 12 3 22 12 15 11 16 -4 4 -10 -8 -14 -20 -11 -29 5 -12 3
-14 -8 -8 -11 7 -12 6 -2 -7 7 -8 12 -17 10 -20 -1 -2 11 10 26 26 16 17 35
43 43 58 13 25 12 27 -6 33 -22 7 -26 20 -10 30 6 3 13 -1 16 -9 3 -9 12 -16
19 -16 23 0 28 -20 11 -39 -16 -17 -15 -19 13 -24 18 -4 36 -17 47 -36 32 -54
42 -41 12 16 -16 30 -25 52 -19 49 5 -4 13 -2 16 4 4 6 1 9 -6 8 -7 -2 -18 8
-26 22 -7 14 -13 19 -13 12 0 -7 -5 -10 -10 -7 -8 5 -8 11 0 20 8 10 8 15 -1
21 -8 4 -9 3 -5 -4 4 -7 2 -12 -3 -12 -6 0 -11 5 -11 11 0 5 -4 7 -10 4 -5 -3
-10 1 -10 9 0 9 -5 16 -11 16 -5 0 -8 4 -5 9 8 12 -4 42 -13 36 -4 -2 -8 3 -8
11 0 8 6 13 13 10 13 -5 13 19 -1 31 -4 4 -5 2 -1 -4z m-6 -104 c15 -24 16
-22 -21 -41 -26 -13 -32 -13 -72 7 -23 12 -53 26 -66 30 -21 7 -18 9 21 15 91
14 124 12 138 -11z"/>
<path d="M1809 1597 c7 -9 19 -17 25 -17 7 0 30 -9 51 -21 22 -11 48 -22 58
-22 9 -1 16 -5 15 -10 -5 -12 75 -55 91 -49 9 3 12 1 7 -6 -5 -8 -2 -10 9 -6
10 4 15 2 13 -7 -2 -8 3 -13 10 -11 8 1 11 -2 6 -9 -5 -8 -2 -10 7 -7 9 3 25
-5 38 -18 13 -13 28 -24 35 -24 17 1 -76 81 -107 92 -15 6 -26 12 -24 15 3 2
22 -3 43 -12 l39 -16 -30 28 c-16 15 -33 27 -38 25 -5 -1 -6 2 -3 7 4 5 -3 25
-15 43 l-21 33 5 -35 c3 -19 7 -44 9 -54 2 -10 -3 -21 -10 -23 -7 -3 -11 1
-10 9 2 8 -4 12 -16 10 -10 -2 -15 1 -12 6 7 11 -98 74 -129 78 -11 1 -29 6
-40 10 -18 7 -18 6 -6 -9z"/>
<path d="M701 1582 c-62 -17 -64 -18 -83 -66 -10 -27 -16 -56 -12 -65 5 -13 7
-13 11 -2 3 7 14 22 24 32 16 16 17 24 9 39 -6 11 -8 25 -5 30 10 15 35 12 35
-5 0 -8 9 -15 20 -15 12 0 24 -10 30 -22 l9 -23 0 22 c1 12 -7 27 -16 33 -16
10 -16 11 3 7 17 -4 20 -1 17 14 -8 29 16 23 27 -7 12 -32 12 -37 1 -29 -5 3
-12 1 -16 -5 -3 -5 0 -10 8 -10 11 0 10 -11 -5 -57 -11 -32 -26 -63 -34 -70
-11 -8 -12 -13 -4 -18 16 -10 17 -8 55 100 19 54 41 105 51 114 15 15 15 14 4
-7 -6 -13 -10 -25 -8 -26 2 -1 32 5 68 14 l65 16 -47 12 c-62 16 -129 14 -207
-6z"/>
<path d="M2450 1569 c-12 -8 -10 -9 8 -4 29 8 28 -2 -4 -27 -14 -11 -22 -23
-19 -26 5 -5 65 53 65 64 0 8 -35 4 -50 -7z"/>
<path d="M1865 1540 c-3 -6 2 -13 12 -17 10 -3 83 -43 163 -88 210 -119 288
-160 260 -136 -14 11 -41 28 -60 38 -19 10 -73 41 -120 69 -47 28 -107 63
-134 78 -37 22 -45 31 -35 38 11 8 10 8 -4 4 -10 -3 -31 1 -47 9 -18 10 -31
11 -35 5z"/>
<path d="M2273 1499 c-24 -9 -38 -38 -25 -51 6 -6 12 1 16 16 7 28 23 36 23
11 0 -8 -4 -12 -9 -9 -4 3 -8 0 -8 -5 0 -6 4 -11 10 -11 5 0 7 -8 4 -17 -5
-15 -4 -16 5 -3 6 8 11 24 11 36 0 11 5 25 10 30 13 13 -7 14 -37 3z"/>
<path d="M742 1473 c-16 -42 -24 -73 -19 -73 7 0 38 92 33 97 -2 2 -8 -9 -14
-24z"/>
<path d="M1134 1478 c44 -60 46 -78 30 -204 -8 -66 -17 -218 -19 -339 -3 -121
-8 -251 -12 -290 -8 -83 -7 -174 2 -183 12 -12 24 24 31 91 7 70 20 85 17 19
-2 -34 -1 -33 11 13 7 28 10 55 7 60 -10 18 -10 160 1 193 13 44 59 96 122
138 28 19 46 34 40 34 -10 0 -82 -45 -116 -73 -10 -7 -28 -33 -41 -56 -14 -24
-27 -39 -30 -34 -8 13 12 442 24 498 7 34 7 51 -1 53 -5 2 -10 9 -10 15 0 16
-51 87 -63 87 -5 0 -2 -10 7 -22z"/>
<path d="M1820 1466 c8 -8 31 -17 50 -20 19 -3 29 -3 22 0 -6 3 -10 9 -8 13 3
4 -8 6 -25 5 -16 -1 -29 2 -29 7 0 5 -5 9 -12 9 -8 0 -8 -4 2 -14z"/>
<path d="M1932 1458 c2 -15 20 -26 68 -44 36 -13 68 -23 72 -21 3 1 -27 21
-68 44 -68 38 -75 40 -72 21z"/>
<path d="M657 1463 c-10 -10 13 -33 34 -33 29 0 31 16 3 29 -29 13 -29 13 -37
4z"/>
<path d="M1742 1449 c3 -8 24 -19 49 -25 64 -17 285 -64 300 -64 28 0 -2 10
-72 25 -41 8 -112 27 -159 41 -129 39 -123 38 -118 23z"/>
<path d="M580 1444 c0 -6 15 -22 34 -35 19 -13 32 -27 30 -31 -3 -4 3 -5 12
-1 11 4 15 2 11 -4 -4 -6 0 -16 8 -23 8 -7 15 -9 15 -4 0 5 9 -2 20 -16 11
-14 20 -20 20 -13 0 21 -52 73 -94 95 -22 11 -44 26 -48 32 -6 8 -8 8 -8 0z"/>
<path d="M768 1383 c-12 -27 -23 -51 -25 -55 -2 -5 0 -8 5 -8 6 0 13 12 17 27
5 22 8 24 16 12 8 -10 9 -8 4 8 -3 12 -1 31 5 43 6 11 8 20 5 20 -3 0 -15 -21
-27 -47z"/>
<path d="M929 1408 c10 -14 10 -21 -3 -40 -21 -29 -21 -147 -2 -212 8 -27 13
-53 10 -60 -3 -7 0 -25 5 -39 6 -15 7 -27 2 -27 -5 0 -7 -9 -4 -20 7 -25 0
-25 -72 0 -32 11 -65 20 -74 19 -9 0 15 -11 52 -24 62 -21 106 -45 82 -45 -6
0 -3 -5 5 -10 12 -8 13 -11 1 -19 -8 -5 -9 -11 -3 -15 6 -4 7 -20 1 -46 -8
-34 -16 -161 -18 -288 -1 -20 -5 -31 -11 -27 -7 4 -9 -4 -6 -21 8 -40 -3 -72
-26 -80 -11 -3 -17 -8 -14 -11 3 -3 -15 -16 -40 -29 -43 -23 -124 -31 -124
-12 0 4 -7 8 -17 8 -9 0 -13 3 -10 6 9 9 -33 45 -44 38 -5 -3 -21 6 -36 20
-15 15 -34 26 -41 26 -7 0 -10 4 -7 10 3 5 -14 15 -39 22 -29 8 -41 15 -33 20
9 6 8 8 -4 8 -17 0 -63 39 -56 47 3 2 17 -3 31 -12 29 -20 54 -12 35 12 -8 8
-26 13 -46 11 -40 -3 -62 22 -63 70 0 17 2 32 4 32 12 0 69 -60 63 -67 -4 -3
-13 2 -21 12 -9 12 -15 15 -20 7 -20 -32 36 -43 95 -18 19 8 55 33 81 56 46
41 61 74 63 130 0 42 19 38 19 -5 1 -22 6 -40 12 -40 13 0 69 -47 72 -60 1 -5
5 -10 10 -10 4 0 13 -4 20 -9 14 -8 -1 16 -75 121 -43 62 -47 88 -18 123 13
15 18 44 16 88 -1 24 -34 62 -53 62 -6 0 -3 -6 8 -14 16 -12 17 -17 6 -28 -7
-7 -12 -8 -10 -3 5 16 -38 54 -52 45 -7 -4 -9 -13 -5 -20 4 -6 -1 -20 -11 -31
-16 -18 -16 -19 0 -19 10 0 20 9 23 20 5 19 7 20 30 5 13 -9 27 -14 32 -11 12
8 4 -43 -9 -59 -10 -12 -10 -15 0 -15 9 0 8 -5 -3 -18 -10 -10 -17 -28 -17
-40 0 -12 -5 -33 -12 -47 -9 -19 -9 -28 0 -37 13 -13 16 -29 5 -27 -20 3 -27
-2 -14 -10 11 -7 11 -14 -4 -38 -22 -38 -106 -94 -121 -82 -6 5 -18 7 -25 4
-8 -3 -21 0 -29 5 -13 9 -13 11 0 20 14 9 13 10 -15 10 -3 0 -14 9 -26 21 -11
11 -27 18 -34 15 -10 -3 -12 0 -8 12 6 15 5 15 -10 3 -13 -10 -17 -10 -17 -1
0 7 -11 21 -25 32 -14 11 -25 26 -25 34 0 8 -4 13 -9 10 -5 -3 -20 3 -32 14
l-24 20 24 20 c13 11 29 20 37 20 8 0 14 5 14 10 0 6 7 10 16 10 8 0 12 -4 9
-10 -3 -6 1 -7 9 -4 19 7 22 38 4 31 -7 -2 -22 3 -33 12 -11 9 -17 12 -12 7 8
-11 -21 -46 -39 -46 -7 0 -14 -5 -16 -11 -2 -6 -15 1 -30 15 -21 22 -26 23
-24 9 0 -11 -5 -17 -16 -17 -10 1 -18 -4 -18 -11 0 -14 32 -45 47 -45 6 0 24
-15 39 -32 15 -18 28 -31 30 -28 1 3 11 -6 22 -20 11 -14 37 -35 57 -45 30
-17 35 -24 33 -50 -2 -16 -8 -29 -14 -28 -6 1 -11 -5 -11 -12 0 -10 4 -12 12
-5 12 10 26 -6 29 -32 3 -22 57 -75 114 -112 37 -24 103 -69 147 -100 74 -53
83 -57 120 -51 22 3 66 21 98 40 32 19 60 35 62 35 2 0 -1 -12 -6 -28 -24 -77
-49 -194 -43 -204 4 -6 3 -8 -3 -5 -6 4 -14 0 -17 -9 -9 -24 -8 -27 10 -20 14
5 15 -2 9 -62 -4 -37 -9 -75 -11 -84 -4 -11 0 -18 9 -18 15 0 18 15 33 144 3
28 7 53 9 56 2 4 9 46 15 95 11 86 23 120 40 110 14 -8 5 24 -10 38 -12 10
-12 9 -1 -5 10 -14 9 -18 -11 -29 -20 -11 -22 -11 -10 3 10 12 10 17 1 20 -9
3 -7 48 9 189 47 404 47 395 12 569 -21 104 -22 137 -5 170 16 31 16 33 -1 49
-17 15 -17 15 -5 -1z"/>
<path d="M1751 1383 c2 -29 3 -32 6 -11 4 25 7 27 36 21 18 -3 39 -12 48 -19
9 -8 31 -14 50 -13 36 2 197 -26 206 -35 3 -3 0 -12 -7 -21 -7 -8 -8 -15 -3
-15 8 0 43 36 43 45 0 2 -7 1 -17 -2 -11 -4 -14 -3 -9 5 5 8 0 12 -14 12 -26
0 -320 59 -332 66 -4 3 -7 -12 -7 -33z"/>
<path d="M1030 1395 c0 -7 11 -16 24 -19 13 -3 31 -9 40 -12 9 -3 16 -1 16 5
0 6 -6 11 -12 11 -7 0 -25 7 -40 14 -23 12 -28 12 -28 1z"/>
<path d="M1245 1391 c-28 -6 -29 -8 -10 -18 24 -13 75 -14 75 -2 0 5 -10 9
-22 10 -22 0 -22 1 -3 9 24 10 3 11 -40 1z"/>
<path d="M1657 1378 c4 -13 8 -37 8 -55 0 -17 3 -29 8 -26 16 10 3 103 -15
103 -5 0 -6 -9 -1 -22z"/>
<path d="M303 1340 c-3 -11 -12 -20 -20 -20 -17 0 -10 -29 19 -78 l20 -33 -36
4 c-39 5 -76 -15 -76 -40 0 -12 -3 -13 -13 -4 -14 11 -27 5 -27 -13 0 -6 5 -4
10 4 8 12 9 9 8 -10 -2 -22 -37 -71 -39 -52 0 4 -8 -13 -19 -38 -10 -25 -23
-44 -29 -43 -6 2 -8 -4 -5 -12 4 -8 2 -15 -3 -15 -11 0 -10 -56 0 -67 4 -3 7
6 7 21 0 15 10 37 23 50 12 12 23 33 24 47 1 13 15 36 31 50 16 14 32 38 36
52 13 54 84 73 166 44 33 -12 47 -13 55 -5 7 8 6 9 -5 6 -10 -4 -15 2 -16 18
-1 14 3 21 11 18 7 -3 15 2 19 11 3 10 11 13 18 9 7 -4 10 -3 5 1 -13 15 -45
15 -57 0 -18 -21 -60 -19 -61 3 -1 11 -4 8 -8 -8 -7 -24 -8 -24 -20 13 -7 21
-11 54 -9 73 4 37 -1 46 -9 14z"/>
<path d="M342 1345 c-7 -9 -10 -20 -7 -25 3 -6 1 -10 -4 -10 -6 0 -11 -4 -11
-10 0 -5 8 -10 18 -10 15 0 15 -2 2 -11 -12 -8 -11 -9 5 -7 13 3 19 10 17 22
-3 14 1 17 14 12 14 -5 15 -4 5 8 -7 9 -8 17 -2 20 5 3 12 0 15 -6 3 -7 5 -4
3 7 -3 24 -37 31 -55 10z"/>
<path d="M2496 1348 c4 -7 13 -20 19 -28 29 -34 27 -58 -4 -76 -16 -10 -28
-20 -26 -24 2 -3 -5 -7 -16 -7 -11 -1 -17 2 -14 7 3 6 -1 7 -9 4 -17 -6 -68
24 -61 37 3 4 -4 13 -15 19 -26 14 -26 0 0 -28 12 -12 17 -22 13 -22 -4 0 -1
-5 7 -11 13 -9 12 -10 -3 -5 -25 8 -76 -32 -86 -69 l-8 -30 -11 25 c-11 26
-16 13 -6 -14 6 -16 44 -23 44 -8 0 5 23 28 51 51 49 42 51 43 70 25 19 -17
21 -17 64 4 32 16 45 28 45 43 0 13 5 19 13 16 8 -3 13 3 14 17 0 11 -1 15 -4
9 -8 -21 -20 -15 -27 12 -7 27 -35 65 -49 65 -4 0 -5 -6 -1 -12z"/>
<path d="M1273 1338 c-36 -8 -43 -13 -43 -33 0 -39 64 -60 100 -34 13 9 12 10
-2 5 -10 -3 -20 -1 -23 3 -2 5 14 14 38 19 33 9 43 16 43 32 0 21 -11 27 -21
10 -4 -7 -12 -7 -25 0 -10 5 -20 10 -22 9 -2 -1 -22 -5 -45 -11z m77 -14 c23
-14 23 -14 3 -9 -14 4 -23 2 -23 -4 0 -6 -12 -11 -27 -10 -27 0 -27 1 -5 9 26
11 30 22 5 14 -15 -5 -16 -4 -3 5 19 13 20 13 50 -5z"/>
<path d="M1400 1338 c0 -24 15 -37 30 -28 12 8 11 10 -5 10 -18 1 -17 2 5 15
l25 14 -27 1 c-16 0 -28 -5 -28 -12z"/>
<path d="M2018 1319 c-3 -8 -42 -13 -123 -14 -139 -2 -135 -2 -135 -16 0 -11
173 -11 195 0 5 3 24 4 42 2 22 -2 33 2 33 11 0 10 3 9 10 -2 7 -12 12 -12 21
-3 15 15 12 18 -18 27 -13 4 -23 2 -25 -5z"/>
<path d="M2130 1303 c-21 -43 -23 -50 -6 -29 9 11 20 15 28 10 11 -6 11 -5 0
8 -20 25 2 30 28 8 27 -24 31 -25 24 -6 -4 10 -45 36 -58 36 -1 0 -9 -12 -16
-27z"/>
<path d="M821 1224 c-12 -31 -20 -58 -18 -61 2 -2 14 22 25 54 12 31 20 59 18
61 -2 2 -14 -22 -25 -54z"/>
<path d="M1798 1262 c-21 -2 -38 -7 -38 -12 0 -10 133 -4 245 10 50 7 40 8
-55 7 -63 -1 -132 -3 -152 -5z"/>
<path d="M2039 1226 c-2 -2 -58 -7 -124 -10 -139 -8 -156 -12 -148 -31 3 -8
10 -12 17 -8 6 4 23 6 38 4 14 -1 29 2 33 8 3 6 12 11 18 11 7 0 6 -4 -3 -11
-11 -8 -7 -9 15 -3 17 4 50 9 75 10 63 4 110 15 110 25 0 9 -23 13 -31 5z"/>
<path d="M1433 1154 c-23 -21 -30 -44 -15 -44 8 0 46 60 40 64 -1 1 -13 -8
-25 -20z"/>
<path d="M1965 1168 c-16 -6 -39 -18 -49 -27 -11 -9 -16 -10 -12 -3 9 15 4 15
-28 1 -14 -7 -24 -19 -23 -30 1 -11 2 -19 2 -19 14 0 113 59 108 64 -5 5 3 5
16 1 17 -5 21 -4 16 5 -5 9 -1 10 16 5 19 -5 21 -4 9 4 -18 12 -16 12 -55 -1z"/>
<path d="M2364 1124 c4 -12 2 -15 -9 -10 -11 4 -15 -1 -15 -19 0 -16 -6 -25
-15 -25 -9 0 -21 -11 -27 -25 -6 -14 -18 -25 -26 -25 -9 0 -13 -2 -10 -5 3 -4
18 -3 32 1 20 5 25 11 21 25 -4 11 -2 19 5 19 17 0 67 55 62 69 -2 6 -8 11
-14 11 -6 0 -7 -7 -4 -16z"/>
<path d="M230 1120 c-12 -8 -10 -10 8 -10 33 0 137 -55 161 -86 18 -23 22 -24
27 -10 4 11 -2 27 -17 42 -24 25 -24 26 -5 40 11 8 15 14 9 14 -6 0 -16 -6
-22 -14 -18 -21 -52 -16 -45 6 3 11 0 18 -8 19 -7 1 -31 3 -53 5 -22 2 -47 -1
-55 -6z"/>
<path d="M246 1051 c-4 -5 -22 -8 -41 -7 -24 2 -35 -1 -35 -10 0 -10 9 -12 29
-8 21 5 38 0 61 -16 27 -19 44 -26 72 -29 3 -1 4 -9 1 -20 -6 -23 8 -33 27
-20 10 6 11 9 3 9 -7 0 -13 5 -13 10 0 6 6 10 14 10 7 0 19 7 26 15 8 9 9 15
2 15 -6 0 -13 -4 -16 -9 -10 -16 -48 0 -41 18 5 13 4 14 -6 4 -18 -18 -28 -16
-24 5 2 12 -3 18 -16 18 -10 0 -19 -4 -19 -9 0 -4 -5 -5 -11 -2 -6 4 -8 13 -5
21 6 16 0 19 -8 5z"/>
<path d="M207 960 l-29 -18 33 2 c18 1 34 7 36 13 7 20 -11 21 -40 3z"/>
<path d="M1021 934 c0 -27 3 -54 8 -60 5 -5 11 -18 14 -29 6 -28 -4 51 -13
100 l-7 40 -2 -51z"/>
<path d="M2220 931 c9 -17 57 -37 66 -28 2 2 -14 13 -36 25 -37 19 -39 20 -30
3z"/>
<path d="M1381 912 c-1 -7 -12 -17 -26 -22 -14 -5 -28 -16 -31 -24 -3 -8 -12
-12 -19 -10 -17 7 -29 -12 -14 -22 8 -4 9 -3 5 4 -4 7 -2 12 3 12 6 0 11 -5
11 -12 0 -6 3 -8 6 -5 4 4 17 -15 30 -41 27 -55 31 -74 9 -46 -15 19 -16 19
-13 0 4 -27 28 -32 35 -7 7 27 23 27 23 1 0 -11 7 -20 15 -20 9 0 15 9 15 24
0 17 -8 25 -32 32 -20 6 -39 22 -51 41 -18 31 -18 32 1 51 11 11 25 21 32 24
7 2 10 11 7 19 -4 9 -6 10 -6 1z"/>
<path d="M1496 868 c-12 -107 -14 -188 -4 -188 6 0 7 -12 4 -27 -4 -18 -3 -23
2 -14 7 9 12 10 16 2 4 -6 2 -12 -3 -12 -42 -5 -46 -3 -46 24 1 16 -5 27 -12
27 -7 0 -13 -11 -13 -25 0 -14 -4 -25 -10 -25 -5 0 -10 13 -10 30 0 22 -4 28
-15 24 -18 -7 -75 32 -75 52 0 8 -4 14 -10 14 -21 0 -9 -30 20 -52 19 -13 30
-31 30 -45 0 -14 4 -22 9 -18 5 3 12 -3 15 -12 3 -10 15 -24 27 -32 19 -11 21
-11 16 4 -4 9 -3 14 3 10 6 -4 9 -55 8 -128 -2 -95 -6 -121 -16 -119 -8 1 -11
-2 -7 -8 3 -6 11 -7 17 -4 7 5 9 0 6 -14 -4 -12 -2 -22 3 -22 5 0 9 60 9 133
0 72 4 138 9 145 4 8 19 12 32 10 19 -2 23 1 23 22 0 14 5 28 10 32 7 5 4 8
-7 8 -10 0 -15 5 -12 10 4 6 10 8 13 6 4 -2 19 5 32 16 14 11 20 17 13 14 -7
-4 -13 3 -15 16 -2 12 -8 23 -14 25 -7 2 -10 -5 -7 -20 3 -14 -2 -29 -12 -37
-23 -19 -31 -2 -27 54 4 41 6 45 22 36 10 -6 32 -10 49 -10 l30 0 -25 44 c-14
24 -31 50 -39 56 -8 7 -15 18 -15 26 0 7 -4 15 -9 19 -5 3 -12 -18 -15 -47z
m54 -63 c-13 -16 -36 -10 -44 11 -4 12 -2 12 14 4 23 -13 27 2 5 20 -8 7 -15
18 -15 24 0 6 12 -2 26 -18 19 -21 22 -31 14 -41z"/>
<path d="M1397 853 c-14 -13 -6 -41 13 -46 17 -4 20 0 20 24 0 27 -17 39 -33
22z"/>
<path d="M1444 823 c2 -16 9 -28 17 -28 8 0 14 11 14 28 1 19 -4 27 -16 27
-13 0 -17 -7 -15 -27z"/>
<path d="M1655 810 c-7 -11 -8 -23 -20 -130 -3 -30 -8 -62 -11 -72 -2 -9 -1
-19 4 -22 6 -3 13 29 17 72 4 42 10 96 15 120 8 43 6 50 -5 32z"/>
<path d="M1444 738 c1 -13 -2 -28 -6 -35 -7 -8 -3 -10 11 -6 24 6 31 63 7 63
-8 0 -13 -9 -12 -22z"/>
<path d="M2100 740 c-6 -11 -8 -20 -4 -20 3 0 1 -6 -5 -13 -6 -8 -9 -16 -6
-19 3 -3 -2 -21 -10 -41 -23 -56 -18 -65 8 -16 22 40 44 129 32 129 -2 0 -9
-9 -15 -20z"/>
<path d="M2290 745 c-17 -20 -7 -29 17 -17 10 6 29 15 43 20 24 10 23 11 -11
11 -21 1 -42 -5 -49 -14z"/>
<path d="M600 705 c-12 -19 -25 -35 -28 -35 -4 -1 -22 -14 -41 -30 -24 -20
-28 -27 -14 -24 28 8 86 64 101 97 16 37 8 34 -18 -8z"/>
<path d="M821 693 c19 -24 52 -52 62 -53 5 0 -8 16 -27 35 -38 37 -58 47 -35
18z"/>
<path d="M1084 477 c-8 -21 10 -67 26 -67 15 0 12 43 -4 66 -14 18 -15 18 -22
1z"/>
<path d="M1126 407 c-3 -12 -6 -44 -6 -72 0 -48 -22 -236 -36 -302 -9 -44 11
-43 25 0 26 76 51 379 33 391 -5 3 -12 -4 -16 -17z"/>
<path d="M2077 391 c-3 -12 -1 -24 4 -27 5 -3 7 -10 3 -15 -3 -5 0 -17 8 -26
7 -9 8 -14 2 -10 -6 3 -11 0 -11 -8 0 -8 4 -12 9 -9 5 3 6 -5 3 -19 -4 -14 0
-37 9 -54 11 -23 12 -33 3 -42 -8 -8 -6 -11 7 -11 15 0 16 -3 6 -15 -8 -9 -10
-29 -7 -50 3 -21 2 -33 -4 -30 -5 4 -9 1 -9 -4 0 -6 4 -11 10 -11 5 0 7 -13 4
-30 -8 -40 12 -40 21 0 4 16 5 48 4 70 -2 26 2 44 10 49 11 7 10 20 -7 72 -11
35 -25 87 -32 114 -14 65 -25 84 -33 56z"/>
<path d="M1615 300 c3 -14 7 -74 9 -135 3 -76 8 -111 16 -113 9 -3 11 4 7 24
-4 16 -9 72 -13 124 -4 52 -11 102 -15 110 -7 10 -8 7 -4 -10z"/>
<path d="M1450 280 c-2 -14 -2 -33 -2 -43 2 -14 -2 -16 -17 -7 -25 13 -44 13
-36 0 3 -6 -5 -10 -19 -10 -25 0 -49 -20 -24 -20 144 -3 180 -6 188 -20 5 -8
10 -10 10 -5 -1 12 -26 47 -34 46 -3 -1 -9 0 -13 0 -5 1 -16 1 -25 0 -13 -2
-18 8 -21 41 -2 27 -5 34 -7 18z"/>
<path d="M1994 248 c0 -16 4 -28 8 -28 4 0 11 -14 16 -32 4 -18 11 -28 14 -23
3 6 -5 33 -17 60 -18 40 -23 45 -21 23z"/>
<path d="M1333 169 c17 -24 11 -59 -10 -59 -8 0 -11 -4 -8 -10 3 -5 15 -10 26
-10 10 0 24 -9 31 -20 12 -18 24 -20 120 -20 59 0 110 4 113 10 4 6 -6 8 -24
6 -17 -2 -30 -1 -29 3 3 25 -4 29 -22 11 -16 -16 -29 -19 -77 -15 -73 6 -98
30 -90 87 5 35 3 38 -20 38 -22 0 -23 -1 -10 -21z"/>
<path d="M1403 182 c-39 -6 -36 -77 4 -93 34 -13 87 -11 101 3 19 19 14 33 -6
15 -20 -19 -37 -23 -27 -7 3 5 2 10 -4 10 -5 0 -11 -4 -13 -10 -3 -10 -68 27
-68 40 0 12 34 23 38 12 4 -13 42 -3 42 12 0 6 9 0 20 -14 11 -14 20 -23 21
-20 8 43 8 43 -61 52 -14 2 -35 2 -47 0z"/>
</g>
</svg>
